IMDB Ratings: 7.0/10

One murdered man, eight women, each seeming to be more eager than the others to know the truth. Gimme, gimme, gimme some clues to make up my mind. And eventually enter the truth. Oh, thou cruel woman! 

Danielle Darrieux, Catherine Deneuve, 	Isabelle Huppert, Emmanuelle Béart, 	Fanny Ardant, 	Virginie Ledoyen, Ludivine Sagnier



Format                         : AVI
Format/Info                    : Audio Video Interleave
File size                      : 697 MiB
Duration                       : 1h 46mn
Overall bit rate               : 918 Kbps

Video
ID                             : 0
Format                         : MPEG-4 Visual
Format settings, BVOP          : Yes
Format settings, QPel          : No
Format settings, GMC           : No warppoints
Format settings, Matrix        : Default (MPEG)
Codec ID                       : XVID
Codec ID/Hint                  : XviD
Duration                       : 1h 46mn
Bit rate                       : 777 Kbps
Width                          : 640 pixels
Height                         : 368 pixels
Display aspect ratio           : 16:9
Frame rate                     : 25.000 fps
Color space                    : YUV
Chroma subsampling             : 4:2:0
Bit depth                      : 8 bits
Scan type                      : Progressive
Compression mode               : Lossy
Bits/(Pixel*Frame)             : 0.132
Stream size                    : 590 MiB (85%)
Title                          : NeoVideo92CF

Audio
ID                             : 1
Format                         : MPEG Audio
Format version                 : Version 1
Format profile                 : Layer 3
Mode                           : Joint stereo
Mode extension                 : MS Stereo
Codec ID                       : 55
Codec ID/Hint                  : MP3
Duration                       : 1h 46mn
Bit rate mode                  : Constant
Bit rate                       : 128 Kbps
Channel(s)                     : 2 channels
Sampling rate                  : 48.0 KHz
Compression mode               : Lossy
Stream size                    : 97.1 MiB (14%)
Alignment                      : Split accross interleaves
Interleave, duration           : 24 ms (0.60 video frame)
Title                          : NeoSound92CF0

